<?xml version="1.0" encoding="UTF-8" standalone="no"?>
<!-- Created with Inkscape (http://www.inkscape.org/) -->

<svg
   width="648"
   height="648"
   viewBox="0 0 171.44997 171.44998"
   version="1.1"
   id="svg5"
   inkscape:version="1.2 (dc2aedaf03, 2022-05-15)"
   sodipodi:docname="wall texture.svg"
   inkscape:export-filename="Pictures\wall texture.png"
   inkscape:export-xdpi="96"
   inkscape:export-ydpi="96"
   xmlns:inkscape="http://www.inkscape.org/namespaces/inkscape"
   xmlns:sodipodi="http://sodipodi.sourceforge.net/DTD/sodipodi-0.dtd"
   xmlns="http://www.w3.org/2000/svg"
   xmlns:svg="http://www.w3.org/2000/svg">
  <sodipodi:namedview
     id="namedview7"
     pagecolor="#ffffff"
     bordercolor="#000000"
     borderopacity="0.25"
     inkscape:showpageshadow="2"
     inkscape:pageopacity="0"
     inkscape:pagecheckerboard="0"
     inkscape:deskcolor="#d1d1d1"
     inkscape:document-units="mm"
     showgrid="true"
     inkscape:zoom="2.0000001"
     inkscape:cx="299.99999"
     inkscape:cy="233.99999"
     inkscape:window-width="2496"
     inkscape:window-height="1417"
     inkscape:window-x="1976"
     inkscape:window-y="-8"
     inkscape:window-maximized="1"
     inkscape:current-layer="svg5"
     shape-rendering="auto">
    <inkscape:grid
       type="axonomgrid"
       id="grid4295"
       units="px"
       empspacing="32"
       gridanglex="30"
       spacingy="0.52916659"
       gridanglez="30"
       color="#00e5ac"
       opacity="0.0745098"
       enabled="true"
       visible="true"
       snapvisiblegridlinesonly="true"
       originx="0.91654299"
       originy="9.5249908" />
  </sodipodi:namedview>
  <defs
     id="defs2" />
  <path
     style="fill:#000000;fill-opacity:1;stroke:none;stroke-width:1.05833;stroke-dasharray:none;stroke-opacity:1"
     d="m 93.487428,12.170824 h -9.165434 l -5.49926,3.174999 -4.582717,7.937499 v 11.641665 l -10.081978,5.820833 -4.582717,7.937498 v 6.35 l 4.582717,7.937498 5.49926,3.175 h 9.165435 l 5.49926,-3.175 4.582717,-7.937498 V 43.391653 l 10.081978,-5.820833 4.582721,-7.937499 v -6.349999 l -4.582721,-7.937499 z"
     id="path88954"
     sodipodi:nodetypes="ccccccccccccccccccc" />
  <path
     style="fill:#c7c7c7;fill-opacity:1;stroke:none;stroke-width:2;stroke-dasharray:none;stroke-opacity:1"
     d="m 30.245932,125.41247 -16.956053,9.78959 v 19.57916 l 16.956053,9.78958 16.956054,-9.78958 v -19.57916 z"
     id="path6892-3"
     sodipodi:nodetypes="ccccccc" />
  <path
     style="fill:#000000;fill-opacity:1;stroke:none;stroke-width:1.05833;stroke-dasharray:none;stroke-opacity:1"
     d="M 20.163955,3.7041583 H 10.998521 L 5.4992601,6.8791579 0.91654299,14.816657 v 6.349999 l 4.58271711,7.937499 5.4992609,3.174999 h 9.165434 l 10.081977,-5.820832 10.081978,5.820832 h 9.165434 l 5.499261,-3.174999 4.582717,-7.937499 0,-6.349999 L 54.992605,6.8791579 49.493344,3.7041583 H 40.32791 L 30.245932,9.5249908 Z"
     id="path86295"
     sodipodi:nodetypes="ccccccccccccccccccc" />
  <path
     style="fill:#ffffff;fill-opacity:1;stroke:none;stroke-width:1.05833;stroke-dasharray:none;stroke-opacity:1"
     d="M 20.163955,4.2333249 H 10.998521 L 5.9575318,7.1437411 1.3748147,15.08124 v 5.820832 l 4.5827171,7.937499 5.0409892,2.910417 h 9.165434 l 10.08198,-5.820828 10.081975,5.820828 h 9.165434 l 5.040989,-2.910417 4.582717,-7.937499 0,-5.820832 L 54.534333,7.1437411 49.493344,4.2333249 H 40.32791 L 30.245935,10.054161 Z"
     id="path86299"
     sodipodi:nodetypes="ccccccccccccccccccc" />
  <path
     style="fill:#c8c8c8;fill-opacity:1;stroke:none;stroke-width:1.05833;stroke-dasharray:none;stroke-opacity:1"
     d="M 20.163955,4.7624915 H 10.998521 L 6.4158035,7.4083244 4.124445,11.377074 v 7.408332 l 1.8330868,3.175 5.0409892,2.910416 h 9.165434 l 10.081976,-5.820833 10.081979,5.820833 h 9.165434 l 5.040989,-2.910416 1.833087,-3.175 0,-7.408332 L 54.076061,7.4083244 49.493344,4.7624915 H 40.32791 L 30.245935,10.583327 Z"
     id="path87273"
     sodipodi:nodetypes="ccccccccccccccccccc" />
  <path
     style="fill:#ffffff;fill-opacity:1;stroke:none;stroke-width:1.05833;stroke-dasharray:none;stroke-opacity:1"
     d="m 93.487428,12.69999 h -9.165434 l -5.040989,2.910417 -4.582717,7.937498 2e-6,11.641669 -10.081979,5.820829 -4.582717,7.937499 v 5.820832 l 4.582717,7.937499 5.040988,2.910416 h 9.165435 l 5.040988,-2.910416 4.582718,-7.937499 0,-11.64166 10.081977,-5.820837 4.582713,-7.937499 v -5.820833 l -4.582713,-7.937498 z"
     id="path89711"
     sodipodi:nodetypes="ccccccccccccccccccc" />
  <path
     style="fill:#c8c8c8;fill-opacity:1;stroke:none;stroke-width:1.05833;stroke-dasharray:none;stroke-opacity:1"
     d="m 84.321994,13.229157 -4.582717,2.645833 -2.291358,3.968749 v 14.287498 l -12.373337,7.143749 -2.291358,3.96875 0,7.408332 1.833087,3.174999 5.040988,2.910417 9.165435,0 5.040988,-2.910417 1.833087,-3.174999 0,-14.816665 12.831608,-7.408332 1.833083,-3.174999 0,-7.408333 -2.291355,-3.968749 -4.582717,-2.645833 z"
     id="path89821"
     sodipodi:nodetypes="ccccccccccccccccccc" />
  <path
     style="fill:#000000;fill-opacity:1;stroke-width:2;stroke-dasharray:none"
     d="m 137.48151,3.7041583 h -9.16543 l -5.49926,3.1749995 -4.58272,7.9374992 v 6.349999 l 4.58272,7.937499 10.08198,5.820832 v 11.641665 l 4.58271,7.937499 5.49926,3.174999 h 9.16544 l 5.49926,-3.174999 4.58271,-7.937499 0,-6.349999 -4.58271,-7.937499 -10.08198,-5.820832 V 14.816657 l -4.58272,-7.9374992 z"
     id="path3101"
     sodipodi:nodetypes="ccccccccccccccccccc" />
  <path
     style="fill:#ffffff;fill-opacity:1;stroke-width:2;stroke-dasharray:none"
     d="m 128.31608,4.2333249 -5.04099,2.9104162 -4.58272,7.9374989 v 5.820832 l 4.58272,7.937499 10.08198,5.820831 v 11.641667 l 4.58271,7.937499 5.04099,2.910416 h 9.16544 l 5.04099,-2.910416 4.58271,-7.937499 V 40.481236 L 157.1872,32.543737 147.10522,26.722905 V 15.08124 L 142.5225,7.1437411 137.48151,4.2333249 Z"
     id="path3319"
     sodipodi:nodetypes="ccccccccccccccccccc" />
  <path
     style="fill:#c8c8c8;fill-opacity:1;stroke-width:2;stroke-dasharray:none"
     d="m 128.31608,4.7624915 -4.58272,2.6458329 -2.29136,3.9687496 0,7.408332 1.83309,3.175 12.83161,7.408332 0,14.816664 1.83308,3.175 5.04099,2.910416 h 9.16544 l 5.04099,-2.910416 1.83308,-3.175 0,-7.408332 -2.29136,-3.968749 -10.06174,-5.809153 -2.31159,-1.334596 V 11.377074 l -2.29136,-3.9687496 -4.58272,-2.6458329 z"
     id="path3591"
     sodipodi:nodetypes="cccccccccccccccccccc" />
  <path
     style="fill:#000000;fill-opacity:1;stroke-width:2;stroke-dasharray:none"
     d="M 30.245932,60.324983 15.581238,68.791649 V 85.72498 L 0.91654299,94.191645 v 16.933335 l 14.66469501,8.46666 14.664694,-8.46666 14.664695,8.46666 14.664695,-8.46666 V 94.191645 L 44.910627,85.72498 V 68.791649 Z"
     id="path6891"
     sodipodi:nodetypes="ccccccccccccc" />
  <path
     style="fill:#ffffff;fill-opacity:1;stroke-width:2;stroke-dasharray:none"
     d="m 30.245932,60.854159 -14.20642,8.202077 v 16.93333 L 1.3748155,94.456239 V 110.8604 l 14.2064225,8.20207 14.664694,-8.46665 14.664695,8.46665 14.206424,-8.20207 V 94.456239 l -14.6647,-8.466673 v -16.93333 z"
     id="path6947"
     sodipodi:nodetypes="ccccccccccccc" />
  <path
     style="fill:#c8c8c8;fill-opacity:1;stroke-width:2;stroke-dasharray:none"
     d="m 30.245932,61.383319 -11.456792,6.61458 0,16.933331 -14.664695,8.466665 0,12.170835 11.456793,6.61458 14.664694,-8.46667 14.664695,8.46667 11.456793,-6.61458 0,-12.170835 L 41.702725,84.93123 V 67.997899 Z"
     id="path7057"
     sodipodi:nodetypes="ccccccccccccc" />
  <path
     style="fill:#000000;fill-opacity:1;stroke-width:2"
     d="m 103.56941,68.791649 -14.664699,8.466665 v 16.933331 l 14.664699,8.466665 v 16.93333 l 14.66469,8.46667 14.6647,-8.46667 v -16.93333 l 14.66469,-8.466665 V 77.258314 l -14.66469,-8.466665 -14.6647,8.466665 z"
     id="path347"
     sodipodi:nodetypes="ccccccccccccc" />
  <path
     style="fill:#ffffff;fill-opacity:1;stroke-width:2"
     d="m 103.5694,69.320809 -14.206415,8.20209 v 16.40416 l 14.664695,8.466671 v 16.93333 l 14.20642,8.20208 14.20642,-8.20208 v -16.93333 l 14.6647,-8.466671 v -16.40416 l -14.20643,-8.20209 -14.66469,8.46667 z"
     id="path1012"
     sodipodi:nodetypes="ccccccccccccc" />
  <path
     style="fill:#c8c8c8;fill-opacity:1;stroke-width:2"
     d="m 103.5694,69.849979 -11.456787,6.614585 v 12.170832 l 14.664697,8.466665 v 16.933329 l 11.45679,6.61458 11.45679,-6.61458 0,-16.933329 14.6647,-8.466665 V 76.464564 l -11.4568,-6.614585 -14.66469,8.46667 z"
     id="path1279"
     sodipodi:nodetypes="ccccccccccccc" />
</svg>
