<?xml version="1.0" encoding="UTF-8" standalone="no"?>
<!-- Created with Inkscape (http://www.inkscape.org/) -->

<svg
   width="648"
   height="648"
   viewBox="0 0 171.44997 171.44998"
   version="1.1"
   id="svg5"
   inkscape:version="1.2 (dc2aedaf03, 2022-05-15)"
   sodipodi:docname="wall texture.svg"
   inkscape:export-filename="Pictures\wall texture.png"
   inkscape:export-xdpi="96"
   inkscape:export-ydpi="96"
   xmlns:inkscape="http://www.inkscape.org/namespaces/inkscape"
   xmlns:sodipodi="http://sodipodi.sourceforge.net/DTD/sodipodi-0.dtd"
   xmlns="http://www.w3.org/2000/svg"
   xmlns:svg="http://www.w3.org/2000/svg">
  <sodipodi:namedview
     id="namedview7"
     pagecolor="#ffffff"
     bordercolor="#000000"
     borderopacity="0.25"
     inkscape:showpageshadow="2"
     inkscape:pageopacity="0.0"
     inkscape:pagecheckerboard="0"
     inkscape:deskcolor="#d1d1d1"
     inkscape:document-units="mm"
     showgrid="true"
     inkscape:zoom="8.0000002"
     inkscape:cx="108"
     inkscape:cy="528.49999"
     inkscape:window-width="2496"
     inkscape:window-height="1417"
     inkscape:window-x="1976"
     inkscape:window-y="-8"
     inkscape:window-maximized="1"
     inkscape:current-layer="svg5">
    <inkscape:grid
       type="axonomgrid"
       id="grid4295"
       units="px"
       empspacing="32"
       gridanglex="30"
       spacingy="0.52916659"
       gridanglez="30"
       color="#00e5ac"
       opacity="0.0745098"
       enabled="true"
       visible="true"
       snapvisiblegridlinesonly="true"
       originx="0.91654299"
       originy="9.5249908" />
  </sodipodi:namedview>
  <defs
     id="defs2" />
  <path
     style="fill:#000000;fill-opacity:1;stroke:none;stroke-width:1.05833;stroke-dasharray:none;stroke-opacity:1"
     d="m 88.90471,8.4666576 -15.581238,8.9958324 0,16.933331 -14.664695,8.466665 0,17.991664 15.581238,8.995832 15.581239,-8.995832 0,-16.933331 14.664696,-8.466665 V 17.46249 Z"
     id="path88954"
     sodipodi:nodetypes="ccccccccccc" />
  <path
     style="fill:#c7c7c7;fill-opacity:1;stroke:none;stroke-width:2;stroke-dasharray:none;stroke-opacity:1"
     d="m 30.245932,126.99997 -15.581238,8.99584 0,17.99166 15.581238,8.99583 15.581239,-8.99583 0,-17.99166 z"
     id="path6892-3"
     sodipodi:nodetypes="ccccccc" />
  <path
     style="fill:#000000;fill-opacity:1;stroke:none;stroke-width:1.05833;stroke-dasharray:none;stroke-opacity:1"
     d="M 15.581237,-7.8200001e-6 -1.549548e-6,8.9958242 l 0,17.9916638 L 15.581237,35.98332 30.245931,27.516655 44.910626,35.98332 60.491864,26.987488 V 8.9958242 L 44.910626,-7.8199996e-6 30.245931,8.4666576 Z"
     id="path86295"
     sodipodi:nodetypes="ccccccccccc" />
  <path
     style="fill:#ffffff;fill-opacity:1;stroke:none;stroke-width:1.05833;stroke-dasharray:none;stroke-opacity:1"
     d="M 15.581238,1.5874936 1.3748135,9.7895766 V 26.193744 L 15.581238,34.395821 30.245935,25.92916 44.910633,34.395821 59.117052,26.193744 V 9.7895766 L 44.910633,1.5874936 30.245935,10.054161 Z"
     id="path86299" />
  <path
     style="fill:#c7c7c7;fill-opacity:1;stroke:none;stroke-width:1.05833;stroke-dasharray:none;stroke-opacity:1"
     d="m 15.581238,2.1166606 -11.4567942,6.6145803 1.2e-6,12.1708311 11.456793,6.614583 14.664693,-8.466666 14.664696,8.466666 11.456792,-6.614583 8e-6,-12.1708284 -11.456794,-6.614583 -14.664698,8.4666664 z"
     id="path87273"
     sodipodi:nodetypes="ccccccccccc" />
  <path
     style="fill:#ffffff;fill-opacity:1;stroke:none;stroke-width:1.05833;stroke-dasharray:none;stroke-opacity:1"
     d="m 88.90471,10.054159 -14.20642,8.202084 v 16.933331 l -14.6647,8.466667 V 60.060407 L 74.24001,68.26249 88.44644,60.060407 V 43.127074 l 14.6647,-8.466667 V 18.256243 Z"
     id="path89711" />
  <path
     style="fill:#c7c7c7;fill-opacity:1;stroke:none;stroke-width:1.05833;stroke-dasharray:none;stroke-opacity:1"
     d="m 88.90471,10.583326 -11.456791,6.61458 v 16.933331 l -14.664696,8.466666 10e-7,12.170831 11.456793,6.614583 11.456792,-6.614583 0,-16.933331 14.664691,-8.466665 V 17.197906 Z"
     id="path89821"
     sodipodi:nodetypes="ccccccccccc" />
  <path
     style="fill:#000000;fill-opacity:1;stroke-width:2;stroke-dasharray:none"
     d="M 132.8988,-7.8200063e-6 117.31756,8.9958242 l 0,17.9916638 14.66469,8.466666 0,16.933331 15.58124,8.995832 15.58124,-8.995832 0,-17.991664 -14.6647,-8.466666 0,-16.9333308 z"
     id="path3101"
     sodipodi:nodetypes="ccccccccccc" />
  <path
     style="fill:#ffffff;fill-opacity:1;stroke-width:2;stroke-dasharray:none"
     d="m 132.89879,1.5874914 -14.20642,8.202084 V 26.193738 l 14.6647,8.466664 v 16.933331 l 14.20642,8.202087 14.20642,-8.202087 V 35.189569 L 147.10522,26.722905 V 9.7895754 Z"
     id="path3319" />
  <path
     style="fill:#c7c7c7;fill-opacity:1;stroke-width:2;stroke-dasharray:none"
     d="M 132.89879,2.1166584 121.442,8.7312409 V 20.902072 l 14.6647,8.466666 v 16.933331 l 11.45679,6.614582 11.45679,-6.614582 0,-12.170833 -14.66469,-8.466664 V 8.7312409 Z"
     id="path3591"
     sodipodi:nodetypes="ccccccccccc" />
  <path
     style="fill:#000000;fill-opacity:1;stroke-width:2;stroke-dasharray:none"
     d="M 30.245932,59.26665 14.664694,68.262482 V 85.195813 L -4.2954797e-7,93.662479 V 111.65414 L 15.581238,120.64997 l 14.664694,-8.46666 14.664695,8.46666 15.581238,-8.99583 0,-17.991661 -14.664694,-8.466666 0,-16.933331 z"
     id="path6891"
     sodipodi:nodetypes="ccccccccccccc" />
  <path
     style="fill:#ffffff;fill-opacity:1;stroke-width:2;stroke-dasharray:none"
     d="m 30.245932,60.854159 -14.20642,8.202077 v 16.93333 L 1.3748155,94.456239 V 110.8604 l 14.2064245,8.20208 14.664692,-8.46666 14.664689,8.46666 14.20643,-8.20208 V 94.456239 l -14.6647,-8.466673 v -16.93333 z"
     id="path6947" />
  <path
     style="fill:#c7c7c7;fill-opacity:1;stroke-width:2;stroke-dasharray:none"
     d="m 30.245932,61.383319 -11.456792,6.61458 0,16.933331 -14.664695,8.466665 0,12.170835 11.456793,6.61458 14.664694,-8.46667 14.664695,8.46667 11.456793,-6.61458 0,-12.170835 L 41.702725,84.93123 V 67.997899 Z"
     id="path7057"
     sodipodi:nodetypes="ccccccccccccc" />
  <path
     style="fill:#000000;fill-opacity:1;stroke-width:2"
     d="m 103.56941,67.733316 -15.581242,8.995832 0,17.991664 14.664692,8.466668 v 16.93333 l 15.58124,8.99583 15.58124,-8.99583 v -16.93333 l 14.66469,-8.466668 0,-17.991664 -15.58123,-8.995832 -14.6647,8.466665 z"
     id="path347"
     sodipodi:nodetypes="ccccccccccccc" />
  <path
     style="fill:#ffffff;fill-opacity:1;stroke-width:2"
     d="m 103.5694,69.320809 -14.206415,8.20209 v 16.40416 l 14.664695,8.466671 v 16.93333 l 14.20642,8.20208 14.20642,-8.20208 v -16.93333 l 14.6647,-8.466671 v -16.40416 l -14.20643,-8.20209 -14.66469,8.46667 z"
     id="path1012"
     sodipodi:nodetypes="ccccccccccccc" />
  <path
     style="fill:#c7c7c7;fill-opacity:1;stroke-width:2"
     d="m 103.5694,69.849979 -11.456787,6.614585 v 12.170832 l 14.664697,8.466665 v 16.933329 l 11.45679,6.61458 11.45679,-6.61458 0,-16.933329 14.6647,-8.466665 V 76.464564 l -11.4568,-6.614585 -14.66469,8.46667 z"
     id="path1279"
     sodipodi:nodetypes="ccccccccccccc" />
</svg>
